<?xml version="1.0" standalone="no"?><!DOCTYPE svg PUBLIC "-//W3C//DTD SVG 1.1//EN" "http://www.w3.org/Graphics/SVG/1.1/DTD/svg11.dtd"><svg t="1721027504689" class="icon" viewBox="0 0 1024 1024" version="1.1" xmlns="http://www.w3.org/2000/svg" p-id="13298" xmlns:xlink="http://www.w3.org/1999/xlink" width="200" height="200"><path d="M874.432 335.84c0-8.544-0.16-16.96-0.544-25.376 36.48-27.2 68.16-61.216 93.216-100.16a358.432 358.432 0 0 1-107.296 29.312 191.68 191.68 0 0 0 82.144-107.264 358.944 358.944 0 0 1-118.56 45.728c-34.016-38.72-82.592-63.392-136.32-64.32-103.136-1.696-186.72 85.44-186.72 194.656 0 15.52 1.6 30.56 4.832 45.12-155.296-10.016-292.928-90.88-384.96-212.736a206.784 206.784 0 0 0-25.28 99.904c0 69.152 32.96 130.624 83.04 166.912a178.624 178.624 0 0 1-84.608-25.92v2.56c0 96.64 64.416 177.664 149.856 196.544a176.32 176.32 0 0 1-49.184 6.72 170.24 170.24 0 0 1-35.104-3.84c23.712 79.2 92.736 137.056 174.4 139.008C269.44 775.68 188.928 807.36 101.44 807.136c-15.04 0-29.952-1.024-44.576-2.88 82.688 56.736 180.8 89.76 286.336 89.76 343.424 0.096 531.2-298.816 531.2-558.176z" fill="#1D9BF0" p-id="13299"></path></svg>